<mxfile host="Electron" agent="Mozilla/5.0 (Windows NT 10.0; Win64; x64) AppleWebKit/537.36 (KHTML, like Gecko) draw.io/28.1.2 Chrome/138.0.7204.243 Electron/37.4.0 Safari/537.36" version="28.1.2">
  <diagram name="Page-1" id="WR6G2pLzqiv8uPVdWdYz">
    <mxGraphModel dx="867" dy="516" grid="1" gridSize="10" guides="1" tooltips="1" connect="1" arrows="1" fold="1" page="1" pageScale="1" pageWidth="850" pageHeight="1100" math="0" shadow="0">
      <root>
        <mxCell id="0" />
        <mxCell id="1" parent="0" />
        <mxCell id="hO9FxyyX1xdBElVftddy-1" value="&lt;h1 style=&quot;margin-top: 0px;&quot;&gt;Data Flow Diagram&lt;/h1&gt;" style="text;html=1;whiteSpace=wrap;overflow=hidden;rounded=0;" vertex="1" parent="1">
          <mxGeometry x="40" y="30" width="250" height="50" as="geometry" />
        </mxCell>
        <mxCell id="hO9FxyyX1xdBElVftddy-2" value="" style="rounded=0;whiteSpace=wrap;html=1;gradientColor=none;fillColor=none;strokeColor=default;dashed=1;dashPattern=8 8;" vertex="1" parent="1">
          <mxGeometry x="80" y="120" width="120" height="320" as="geometry" />
        </mxCell>
        <mxCell id="hO9FxyyX1xdBElVftddy-3" value="Source" style="rounded=1;whiteSpace=wrap;html=1;strokeColor=none;fillColor=default;" vertex="1" parent="1">
          <mxGeometry x="95" y="104" width="90" height="30" as="geometry" />
        </mxCell>
        <mxCell id="hO9FxyyX1xdBElVftddy-18" style="edgeStyle=orthogonalEdgeStyle;rounded=0;orthogonalLoop=1;jettySize=auto;html=1;entryX=0;entryY=0.5;entryDx=0;entryDy=0;" edge="1" parent="1" source="hO9FxyyX1xdBElVftddy-4" target="hO9FxyyX1xdBElVftddy-9">
          <mxGeometry relative="1" as="geometry" />
        </mxCell>
        <mxCell id="hO9FxyyX1xdBElVftddy-20" style="edgeStyle=orthogonalEdgeStyle;rounded=0;orthogonalLoop=1;jettySize=auto;html=1;entryX=0;entryY=0.25;entryDx=0;entryDy=0;" edge="1" parent="1" source="hO9FxyyX1xdBElVftddy-4" target="hO9FxyyX1xdBElVftddy-8">
          <mxGeometry relative="1" as="geometry" />
        </mxCell>
        <mxCell id="hO9FxyyX1xdBElVftddy-21" style="edgeStyle=orthogonalEdgeStyle;rounded=0;orthogonalLoop=1;jettySize=auto;html=1;entryX=0;entryY=0.5;entryDx=0;entryDy=0;" edge="1" parent="1" source="hO9FxyyX1xdBElVftddy-4" target="hO9FxyyX1xdBElVftddy-10">
          <mxGeometry relative="1" as="geometry" />
        </mxCell>
        <mxCell id="hO9FxyyX1xdBElVftddy-4" value="CRM" style="image;aspect=fixed;html=1;points=[];align=center;fontSize=12;image=img/lib/azure2/general/Folder_Blank.svg;" vertex="1" parent="1">
          <mxGeometry x="121.52" y="190" width="38.48" height="31.23" as="geometry" />
        </mxCell>
        <mxCell id="hO9FxyyX1xdBElVftddy-22" style="edgeStyle=orthogonalEdgeStyle;rounded=0;orthogonalLoop=1;jettySize=auto;html=1;entryX=0;entryY=0.5;entryDx=0;entryDy=0;" edge="1" parent="1" source="hO9FxyyX1xdBElVftddy-5" target="hO9FxyyX1xdBElVftddy-11">
          <mxGeometry relative="1" as="geometry" />
        </mxCell>
        <mxCell id="hO9FxyyX1xdBElVftddy-23" style="edgeStyle=orthogonalEdgeStyle;rounded=0;orthogonalLoop=1;jettySize=auto;html=1;entryX=0;entryY=0.5;entryDx=0;entryDy=0;" edge="1" parent="1" source="hO9FxyyX1xdBElVftddy-5" target="hO9FxyyX1xdBElVftddy-12">
          <mxGeometry relative="1" as="geometry" />
        </mxCell>
        <mxCell id="hO9FxyyX1xdBElVftddy-24" style="edgeStyle=orthogonalEdgeStyle;rounded=0;orthogonalLoop=1;jettySize=auto;html=1;entryX=0;entryY=0.5;entryDx=0;entryDy=0;" edge="1" parent="1" source="hO9FxyyX1xdBElVftddy-5" target="hO9FxyyX1xdBElVftddy-13">
          <mxGeometry relative="1" as="geometry" />
        </mxCell>
        <mxCell id="hO9FxyyX1xdBElVftddy-5" value="ERP" style="image;aspect=fixed;html=1;points=[];align=center;fontSize=12;image=img/lib/azure2/general/Folder_Blank.svg;" vertex="1" parent="1">
          <mxGeometry x="120" y="300" width="36.96" height="30" as="geometry" />
        </mxCell>
        <mxCell id="hO9FxyyX1xdBElVftddy-6" value="Bronze Layer" style="rounded=1;whiteSpace=wrap;html=1;fillColor=#fff2cc;strokeColor=#d6b656;" vertex="1" parent="1">
          <mxGeometry x="280" y="120" width="120" height="30" as="geometry" />
        </mxCell>
        <mxCell id="hO9FxyyX1xdBElVftddy-7" value="" style="rounded=1;whiteSpace=wrap;html=1;fillColor=none;strokeColor=light-dark(#FFD966,#EDEDED);" vertex="1" parent="1">
          <mxGeometry x="280" y="160" width="140" height="280" as="geometry" />
        </mxCell>
        <mxCell id="hO9FxyyX1xdBElVftddy-33" style="edgeStyle=orthogonalEdgeStyle;rounded=0;orthogonalLoop=1;jettySize=auto;html=1;entryX=0;entryY=0.5;entryDx=0;entryDy=0;" edge="1" parent="1" source="hO9FxyyX1xdBElVftddy-8" target="hO9FxyyX1xdBElVftddy-27">
          <mxGeometry relative="1" as="geometry" />
        </mxCell>
        <mxCell id="hO9FxyyX1xdBElVftddy-8" value="crm_sales_details" style="rounded=1;whiteSpace=wrap;html=1;fillColor=#fff2cc;strokeColor=#d6b656;" vertex="1" parent="1">
          <mxGeometry x="295" y="198" width="105" height="20" as="geometry" />
        </mxCell>
        <mxCell id="hO9FxyyX1xdBElVftddy-34" style="edgeStyle=orthogonalEdgeStyle;rounded=0;orthogonalLoop=1;jettySize=auto;html=1;entryX=0;entryY=0.5;entryDx=0;entryDy=0;" edge="1" parent="1" source="hO9FxyyX1xdBElVftddy-9" target="hO9FxyyX1xdBElVftddy-28">
          <mxGeometry relative="1" as="geometry" />
        </mxCell>
        <mxCell id="hO9FxyyX1xdBElVftddy-9" value="crm_cust_info" style="rounded=1;whiteSpace=wrap;html=1;fillColor=#fff2cc;strokeColor=#d6b656;" vertex="1" parent="1">
          <mxGeometry x="295" y="228" width="105" height="20" as="geometry" />
        </mxCell>
        <mxCell id="hO9FxyyX1xdBElVftddy-35" style="edgeStyle=orthogonalEdgeStyle;rounded=0;orthogonalLoop=1;jettySize=auto;html=1;entryX=0;entryY=0.5;entryDx=0;entryDy=0;" edge="1" parent="1" source="hO9FxyyX1xdBElVftddy-10" target="hO9FxyyX1xdBElVftddy-29">
          <mxGeometry relative="1" as="geometry" />
        </mxCell>
        <mxCell id="hO9FxyyX1xdBElVftddy-10" value="crm_prd_info" style="rounded=1;whiteSpace=wrap;html=1;fillColor=#fff2cc;strokeColor=#d6b656;" vertex="1" parent="1">
          <mxGeometry x="295" y="258" width="105" height="20" as="geometry" />
        </mxCell>
        <mxCell id="hO9FxyyX1xdBElVftddy-36" style="edgeStyle=orthogonalEdgeStyle;rounded=0;orthogonalLoop=1;jettySize=auto;html=1;" edge="1" parent="1" source="hO9FxyyX1xdBElVftddy-11" target="hO9FxyyX1xdBElVftddy-30">
          <mxGeometry relative="1" as="geometry" />
        </mxCell>
        <mxCell id="hO9FxyyX1xdBElVftddy-11" value="erp_cust_az12" style="rounded=1;whiteSpace=wrap;html=1;fillColor=#fff2cc;strokeColor=#d6b656;" vertex="1" parent="1">
          <mxGeometry x="295" y="320" width="105" height="20" as="geometry" />
        </mxCell>
        <mxCell id="hO9FxyyX1xdBElVftddy-37" style="edgeStyle=orthogonalEdgeStyle;rounded=0;orthogonalLoop=1;jettySize=auto;html=1;entryX=0;entryY=0.5;entryDx=0;entryDy=0;" edge="1" parent="1" source="hO9FxyyX1xdBElVftddy-12" target="hO9FxyyX1xdBElVftddy-31">
          <mxGeometry relative="1" as="geometry" />
        </mxCell>
        <mxCell id="hO9FxyyX1xdBElVftddy-12" value="erp_loc_a101" style="rounded=1;whiteSpace=wrap;html=1;fillColor=#fff2cc;strokeColor=#d6b656;" vertex="1" parent="1">
          <mxGeometry x="295" y="350" width="105" height="20" as="geometry" />
        </mxCell>
        <mxCell id="hO9FxyyX1xdBElVftddy-38" style="edgeStyle=orthogonalEdgeStyle;rounded=0;orthogonalLoop=1;jettySize=auto;html=1;entryX=0;entryY=0.5;entryDx=0;entryDy=0;" edge="1" parent="1" source="hO9FxyyX1xdBElVftddy-13" target="hO9FxyyX1xdBElVftddy-32">
          <mxGeometry relative="1" as="geometry" />
        </mxCell>
        <mxCell id="hO9FxyyX1xdBElVftddy-13" value="erp_px_cat_g1v2" style="rounded=1;whiteSpace=wrap;html=1;fillColor=#fff2cc;strokeColor=#d6b656;" vertex="1" parent="1">
          <mxGeometry x="295" y="380" width="105" height="20" as="geometry" />
        </mxCell>
        <mxCell id="hO9FxyyX1xdBElVftddy-25" value="Silver Layer" style="rounded=1;whiteSpace=wrap;html=1;fillColor=#f5f5f5;strokeColor=#666666;fontColor=#333333;" vertex="1" parent="1">
          <mxGeometry x="480" y="120" width="120" height="30" as="geometry" />
        </mxCell>
        <mxCell id="hO9FxyyX1xdBElVftddy-26" value="" style="rounded=1;whiteSpace=wrap;html=1;fillColor=none;strokeColor=light-dark(#FFD966,#EDEDED);" vertex="1" parent="1">
          <mxGeometry x="480" y="160" width="140" height="280" as="geometry" />
        </mxCell>
        <mxCell id="hO9FxyyX1xdBElVftddy-90" style="edgeStyle=orthogonalEdgeStyle;rounded=0;orthogonalLoop=1;jettySize=auto;html=1;entryX=0;entryY=0.5;entryDx=0;entryDy=0;jumpStyle=gap;" edge="1" parent="1" source="hO9FxyyX1xdBElVftddy-27" target="hO9FxyyX1xdBElVftddy-43">
          <mxGeometry relative="1" as="geometry" />
        </mxCell>
        <mxCell id="hO9FxyyX1xdBElVftddy-27" value="crm_sales_details" style="rounded=1;whiteSpace=wrap;html=1;fillColor=#f5f5f5;strokeColor=#666666;fontColor=#333333;" vertex="1" parent="1">
          <mxGeometry x="495" y="198" width="105" height="20" as="geometry" />
        </mxCell>
        <mxCell id="hO9FxyyX1xdBElVftddy-89" style="edgeStyle=orthogonalEdgeStyle;rounded=0;orthogonalLoop=1;jettySize=auto;html=1;entryX=0;entryY=0.75;entryDx=0;entryDy=0;jumpStyle=gap;" edge="1" parent="1" source="hO9FxyyX1xdBElVftddy-28" target="hO9FxyyX1xdBElVftddy-41">
          <mxGeometry relative="1" as="geometry">
            <Array as="points">
              <mxPoint x="620" y="238" />
              <mxPoint x="620" y="236" />
            </Array>
          </mxGeometry>
        </mxCell>
        <mxCell id="hO9FxyyX1xdBElVftddy-28" value="crm_cust_info" style="rounded=1;whiteSpace=wrap;html=1;fillColor=#f5f5f5;strokeColor=#666666;fontColor=#333333;" vertex="1" parent="1">
          <mxGeometry x="494" y="228" width="105" height="20" as="geometry" />
        </mxCell>
        <mxCell id="hO9FxyyX1xdBElVftddy-80" style="edgeStyle=orthogonalEdgeStyle;rounded=0;orthogonalLoop=1;jettySize=auto;html=1;entryX=0.5;entryY=0;entryDx=0;entryDy=0;jumpStyle=gap;" edge="1" parent="1" source="hO9FxyyX1xdBElVftddy-29" target="hO9FxyyX1xdBElVftddy-42">
          <mxGeometry relative="1" as="geometry">
            <Array as="points">
              <mxPoint x="650" y="268" />
              <mxPoint x="650" y="290" />
              <mxPoint x="730" y="290" />
            </Array>
          </mxGeometry>
        </mxCell>
        <mxCell id="hO9FxyyX1xdBElVftddy-29" value="crm_prd_info" style="rounded=1;whiteSpace=wrap;html=1;fillColor=#f5f5f5;strokeColor=#666666;fontColor=#333333;" vertex="1" parent="1">
          <mxGeometry x="495" y="258" width="105" height="20" as="geometry" />
        </mxCell>
        <mxCell id="hO9FxyyX1xdBElVftddy-30" value="erp_cust_az12" style="rounded=1;whiteSpace=wrap;html=1;fillColor=#f5f5f5;strokeColor=#666666;fontColor=#333333;" vertex="1" parent="1">
          <mxGeometry x="495" y="320" width="105" height="20" as="geometry" />
        </mxCell>
        <mxCell id="hO9FxyyX1xdBElVftddy-84" style="edgeStyle=orthogonalEdgeStyle;rounded=0;orthogonalLoop=1;jettySize=auto;html=1;entryX=1;entryY=0.25;entryDx=0;entryDy=0;jumpStyle=gap;" edge="1" parent="1" source="hO9FxyyX1xdBElVftddy-31" target="hO9FxyyX1xdBElVftddy-41">
          <mxGeometry relative="1" as="geometry" />
        </mxCell>
        <mxCell id="hO9FxyyX1xdBElVftddy-31" value="erp_loc_a101" style="rounded=1;whiteSpace=wrap;html=1;fillColor=#f5f5f5;strokeColor=#666666;fontColor=#333333;" vertex="1" parent="1">
          <mxGeometry x="495" y="350" width="105" height="20" as="geometry" />
        </mxCell>
        <mxCell id="hO9FxyyX1xdBElVftddy-85" style="edgeStyle=orthogonalEdgeStyle;rounded=0;orthogonalLoop=1;jettySize=auto;html=1;entryX=0;entryY=0.5;entryDx=0;entryDy=0;jumpStyle=gap;" edge="1" parent="1" source="hO9FxyyX1xdBElVftddy-32" target="hO9FxyyX1xdBElVftddy-42">
          <mxGeometry relative="1" as="geometry">
            <Array as="points">
              <mxPoint x="650" y="390" />
              <mxPoint x="650" y="306" />
            </Array>
          </mxGeometry>
        </mxCell>
        <mxCell id="hO9FxyyX1xdBElVftddy-32" value="erp_px_cat_g1v2" style="rounded=1;whiteSpace=wrap;html=1;fillColor=#f5f5f5;strokeColor=#666666;fontColor=#333333;" vertex="1" parent="1">
          <mxGeometry x="495" y="380" width="105" height="20" as="geometry" />
        </mxCell>
        <mxCell id="hO9FxyyX1xdBElVftddy-39" value="Gold Layer" style="rounded=1;whiteSpace=wrap;html=1;fillColor=#ffe6cc;strokeColor=#d79b00;" vertex="1" parent="1">
          <mxGeometry x="670" y="120" width="120" height="30" as="geometry" />
        </mxCell>
        <mxCell id="hO9FxyyX1xdBElVftddy-40" value="" style="rounded=1;whiteSpace=wrap;html=1;strokeColor=#F19C99;fillColor=none;" vertex="1" parent="1">
          <mxGeometry x="650" y="162" width="170" height="272" as="geometry" />
        </mxCell>
        <mxCell id="hO9FxyyX1xdBElVftddy-41" value="dim_customers" style="rounded=1;whiteSpace=wrap;html=1;fillColor=#ffe6cc;strokeColor=#d79b00;" vertex="1" parent="1">
          <mxGeometry x="670" y="192" width="120" height="58" as="geometry" />
        </mxCell>
        <mxCell id="hO9FxyyX1xdBElVftddy-42" value="dim_products" style="rounded=1;whiteSpace=wrap;html=1;fillColor=#ffe6cc;strokeColor=#d79b00;" vertex="1" parent="1">
          <mxGeometry x="670" y="277" width="120" height="58" as="geometry" />
        </mxCell>
        <mxCell id="hO9FxyyX1xdBElVftddy-43" value="facts_sales" style="rounded=1;whiteSpace=wrap;html=1;fillColor=#ffe6cc;strokeColor=#d79b00;" vertex="1" parent="1">
          <mxGeometry x="670" y="371" width="120" height="54" as="geometry" />
        </mxCell>
        <mxCell id="hO9FxyyX1xdBElVftddy-88" style="edgeStyle=orthogonalEdgeStyle;rounded=0;orthogonalLoop=1;jettySize=auto;html=1;entryX=0.189;entryY=1.034;entryDx=0;entryDy=0;entryPerimeter=0;jumpStyle=gap;" edge="1" parent="1" source="hO9FxyyX1xdBElVftddy-30" target="hO9FxyyX1xdBElVftddy-41">
          <mxGeometry relative="1" as="geometry">
            <Array as="points">
              <mxPoint x="660" y="330" />
              <mxPoint x="660" y="252" />
            </Array>
          </mxGeometry>
        </mxCell>
      </root>
    </mxGraphModel>
  </diagram>
</mxfile>
